<?xml version="1.0" standalone="no"?>
<!DOCTYPE svg PUBLIC "-//W3C//DTD SVG 20010904//EN"
 "http://www.w3.org/TR/2001/REC-SVG-20010904/DTD/svg10.dtd">
<svg version="1.0" xmlns="http://www.w3.org/2000/svg"
 width="1277.000000pt" height="766.000000pt" viewBox="0 0 1277.000000 766.000000"
 preserveAspectRatio="xMidYMid meet">
<metadata>
Created by potrace 1.16, written by Peter Selinger 2001-2019
</metadata>
<g transform="translate(0.000000,766.000000) scale(0.100000,-0.100000)"
fill="#000000" stroke="none">
<path d="M12230 7103 c0 -542 1 -559 20 -591 36 -59 118 -78 177 -42 71 43 68
12 71 632 l3 558 -136 0 -135 0 0 -557z"/>
<path d="M12256 6049 c-14 -11 -31 -29 -37 -40 -5 -11 -59 -259 -120 -551 -78
-379 -108 -541 -103 -565 20 -108 151 -145 228 -64 25 26 36 69 137 557 60
290 109 541 109 557 0 37 -23 80 -56 106 -37 29 -121 29 -158 0z"/>
<path d="M11884 4420 c-12 -4 -30 -19 -40 -33 -39 -49 -496 -958 -500 -995 -6
-47 20 -99 65 -129 63 -43 145 -20 185 51 78 137 475 928 481 958 9 49 -23
121 -64 142 -32 17 -93 20 -127 6z"/>
<path d="M11120 2953 c-22 -12 -155 -155 -368 -398 -184 -209 -343 -393 -355
-410 -29 -40 -29 -123 -1 -162 48 -66 133 -78 193 -27 30 25 669 752 699 796
22 31 21 117 -1 151 -37 58 -110 79 -167 50z"/>
<path d="M9975 1738 c-76 -43 -858 -584 -875 -605 -28 -36 -28 -130 1 -167 28
-35 70 -56 114 -56 36 0 66 19 737 475 186 126 218 159 218 224 0 49 -25 99
-62 121 -36 22 -101 26 -133 8z"/>
<path d="M8580 889 c-19 -6 -241 -71 -493 -145 -252 -74 -468 -139 -478 -145
-53 -28 -76 -128 -44 -190 20 -38 71 -69 113 -69 31 0 964 268 1018 292 80 37
87 191 11 241 -33 21 -85 28 -127 16z"/>
<path d="M1116 500 c-109 -33 -129 -184 -33 -254 28 -21 41 -21 538 -24 324
-2 523 1 547 7 21 6 51 25 67 41 27 28 30 38 30 95 0 57 -3 67 -29 94 -17 17
-46 36 -65 41 -44 12 -1014 12 -1055 0z"/>
<path d="M2647 477 c-65 -61 -57 -168 16 -221 28 -21 39 -21 565 -21 511 0
538 1 565 19 38 26 57 66 57 121 0 54 -21 95 -60 119 -25 14 -86 16 -568 16
l-541 0 -34 -33z"/>
<path d="M4251 484 c-83 -69 -54 -215 47 -244 25 -8 205 -10 552 -8 566 3 541
0 582 66 16 27 19 45 16 89 -4 49 -10 61 -41 90 l-37 33 -544 0 -544 0 -31
-26z"/>
<path d="M5929 493 c-38 -24 -59 -65 -59 -118 0 -55 19 -95 57 -121 27 -18 54
-19 565 -19 526 0 537 0 565 21 73 53 81 155 17 219 l-35 35 -542 0 c-483 -1
-545 -2 -568 -17z"/>
</g>
</svg>
